<?xml version="1.0" encoding="UTF-8"?>
<svg version="1.1" xmlns="http://www.w3.org/2000/svg" width="512" height="512">
<path d="M0 0 C8.61149082 7.66033463 16.34582564 15.91566957 23.390625 25.04296875 C23.82375 25.59968262 24.256875 26.15639648 24.703125 26.72998047 C31.89474055 36.02851463 37.91945997 45.6480086 43.390625 56.04296875 C43.73722168 56.6884668 44.08381836 57.33396484 44.44091797 57.99902344 C48.59078159 65.75297246 52.14306784 73.60774711 55.203125 81.85546875 C55.50718262 82.66467773 55.81124023 83.47388672 56.12451172 84.30761719 C57.69643452 88.63151562 58.61585041 92.51855011 59.140625 97.10546875 C59.85881287 100.03242307 60.68143787 101.53338268 63.14111328 103.30078125 C67.10640636 105.63889663 71.23327362 107.61186405 75.38671875 109.58984375 C99.51888771 121.11047822 117.0041899 143.42218145 126.390625 168.04296875 C133.39042171 189.07027831 135.08937413 210.72876699 128.390625 232.04296875 C128.1652002 232.76210449 127.93977539 233.48124023 127.70751953 234.22216797 C120.15255556 257.57434104 108.1376068 279.18359714 95.390625 300.04296875 C94.88563477 300.86958008 94.38064453 301.69619141 93.86035156 302.54785156 C82.36864106 321.2401128 70.28864169 339.61247733 56.92529297 357.02099609 C54.00777009 360.864923 51.17721766 364.7732313 48.328125 368.66796875 C44.0473159 374.49698026 39.72285201 380.28491145 35.265625 385.98046875 C34.61001587 386.82182373 34.61001587 386.82182373 33.94116211 387.68017578 C27.45747277 395.89056193 27.45747277 395.89056193 22.453125 396.60546875 C19.26716424 396.71314536 18.42935679 396.07700008 15.9765625 393.921875 C13.19628908 390.82661592 10.53880724 387.67631325 7.953125 384.41796875 C7.43943359 383.77263184 6.92574219 383.12729492 6.39648438 382.46240234 C-6.66335 365.92595539 -19.12910331 348.7165449 -30.609375 331.04296875 C-31.18300781 331.37167969 -31.75664062 331.70039063 -32.34765625 332.0390625 C-55.89982878 345.22684955 -80.85421155 354.87418245 -107.609375 359.04296875 C-109.54876953 359.37748047 -109.54876953 359.37748047 -111.52734375 359.71875 C-165.74577611 367.71284183 -221.73821825 352.21391421 -265.609375 320.04296875 C-270.12440541 316.57272074 -274.38427362 312.85746169 -278.609375 309.04296875 C-279.46273437 308.30949219 -280.31609375 307.57601563 -281.1953125 306.8203125 C-312.78638667 279.36497833 -333.08330469 241.53392561 -342.921875 201.23046875 C-343.28563232 199.74740234 -343.28563232 199.74740234 -343.65673828 198.234375 C-347.07203934 183.59806006 -347.98600948 169.3751827 -347.921875 154.41796875 C-347.91914078 153.0943634 -347.91914078 153.0943634 -347.91635132 151.74401855 C-347.87077443 138.63747003 -347.43417024 125.88820835 -344.609375 113.04296875 C-344.43776855 112.23134277 -344.26616211 111.4197168 -344.08935547 110.58349609 C-336.95083333 77.54470596 -322.66235488 48.40365246 -301.609375 22.04296875 C-301.12887695 21.44000977 -300.64837891 20.83705078 -300.15332031 20.21582031 C-266.53336303 -21.50752545 -215.8806979 -47.33692378 -162.99609375 -53.55078125 C-102.44023016 -59.08338245 -45.65192558 -39.97470705 0 0 Z M-177.609375 -33.95703125 C-178.80844482 -33.70759766 -178.80844482 -33.70759766 -180.03173828 -33.453125 C-229.49800377 -22.96763595 -272.83151628 7.29337065 -300.546875 49.453125 C-317.02139371 75.22444407 -326.97483043 103.70242281 -330.609375 134.04296875 C-330.76921875 134.92984375 -330.9290625 135.81671875 -331.09375 136.73046875 C-331.40831398 139.46902578 -331.31881929 141.3657062 -330.609375 144.04296875 C-328.58872886 146.08085128 -328.58872886 146.08085128 -325.89453125 147.79296875 C-324.89534668 148.47875 -323.89616211 149.16453125 -322.86669922 149.87109375 C-321.79178223 150.5878125 -320.71686523 151.30453125 -319.609375 152.04296875 C-318.5383252 152.7803125 -317.46727539 153.51765625 -316.36376953 154.27734375 C-313.59444023 156.18305247 -310.80374968 158.05392742 -308.00073242 159.90966797 C-306.85200193 160.67373258 -305.70720256 161.4437364 -304.56616211 162.21923828 C-302.88472595 163.36146264 -301.1921678 164.48513204 -299.49609375 165.60546875 C-298.01435669 166.59740234 -298.01435669 166.59740234 -296.50268555 167.609375 C-293.22591055 169.23296987 -291.21981208 169.44046551 -287.609375 169.04296875 C-285.16795902 167.63546877 -285.16795902 167.63546877 -283.046875 165.66796875 C-277.18826445 160.5925949 -272.40814321 159.5008809 -264.73828125 159.6796875 C-257.22737985 160.55173972 -252.21820247 163.88422624 -247.484375 169.66796875 C-246.1707021 171.44356322 -244.87991591 173.23625958 -243.609375 175.04296875 C-242.15282793 177.06508994 -240.69452362 179.08594665 -239.234375 181.10546875 C-238.26371094 182.48412109 -238.26371094 182.48412109 -237.2734375 183.890625 C-235.78698957 186.13502254 -235.78698957 186.13502254 -233.609375 187.04296875 C-231.79647187 187.26493083 -229.97706694 187.43490973 -228.15625 187.578125 C-226.51462891 187.70864258 -226.51462891 187.70864258 -224.83984375 187.84179688 C-223.11701172 187.97231445 -223.11701172 187.97231445 -221.359375 188.10546875 C-220.22628906 188.19634766 -219.09320313 188.28722656 -217.92578125 188.38085938 C-209.0498546 189.69870633 -209.0498546 189.69870633 -200.6953125 187.96875 C-200.13070312 187.43636719 -199.56609375 186.90398437 -198.984375 186.35546875 C-197.97697266 185.40607422 -197.97697266 185.40607422 -196.94921875 184.4375 C-193.02037471 180.41682989 -189.21810098 176.28480289 -185.4375 172.125 C-183.28370302 169.76137142 -181.08165169 167.4689324 -178.796875 165.23046875 C-175.80923137 162.29358606 -173.03975979 159.20921438 -170.32421875 156.01953125 C-169.18770425 154.70956238 -168.01261362 153.43202946 -166.80078125 152.19140625 C-166.24261719 151.60617188 -165.68445313 151.0209375 -165.109375 150.41796875 C-164.6040625 149.91007813 -164.09875 149.4021875 -163.578125 148.87890625 C-162.06269528 146.0069225 -162.79678422 144.12780411 -163.609375 141.04296875 C-164.54439881 138.8063493 -165.54775615 136.59734975 -166.609375 134.41796875 C-170.22215698 126.96660592 -172.01535965 120.67537712 -169.9609375 112.4453125 C-166.64253469 103.0431712 -159.68690512 98.7625869 -151.296875 93.98046875 C-150.16995239 93.33585693 -150.16995239 93.33585693 -149.02026367 92.67822266 C-147.54136657 91.83655833 -146.0604048 90.99850885 -144.57714844 90.16455078 C-142.95582546 89.24043692 -141.36061516 88.27066411 -139.7734375 87.2890625 C-132.96866297 83.32149462 -126.35225565 83.06814565 -118.609375 84.04296875 C-112.37287437 85.7333334 -107.81610958 90.19823014 -103.1015625 94.43359375 C-99.82344821 96.55049514 -98.46299401 96.75419156 -94.609375 96.04296875 C-91.51076388 94.37016782 -88.73793636 92.33704787 -85.921875 90.23046875 C-84.78395508 89.4096582 -84.78395508 89.4096582 -83.62304688 88.57226562 C-81.59016923 87.09201492 -79.57441583 85.61218548 -77.609375 84.04296875 C-77.03598389 83.61153564 -76.46259277 83.18010254 -75.87182617 82.7355957 C-73.89338418 80.08300659 -74.23104931 78.29379388 -74.609375 75.04296875 C-75.47143318 72.26326815 -76.60658989 69.63523139 -77.78515625 66.9765625 C-78.1109819 66.22004898 -78.43680756 65.46353546 -78.77250671 64.68409729 C-79.46101199 63.09098413 -80.15470796 61.50010539 -80.85327148 59.91137695 C-81.91800626 57.48926953 -82.96717175 55.06089315 -84.01367188 52.63085938 C-84.68660063 51.07903677 -85.36039994 49.52759133 -86.03515625 47.9765625 C-86.34777908 47.25560898 -86.66040192 46.53465546 -86.98249817 45.79185486 C-89.59917225 38.89271929 -89.59917225 38.89271929 -94.609375 34.04296875 C-97.63952467 34.00447456 -100.64732796 34.02500147 -103.67578125 34.0859375 C-105.54230684 34.10834595 -107.4088441 34.12979912 -109.27539062 34.15039062 C-112.21589785 34.18732737 -115.15580781 34.23014276 -118.09594727 34.28979492 C-120.93514338 34.34471307 -123.77368318 34.37350612 -126.61328125 34.3984375 C-127.91224083 34.43411079 -127.91224083 34.43411079 -129.23744202 34.47050476 C-135.86744461 34.49857441 -142.01812301 33.13523742 -147.16749573 28.70133972 C-152.65903422 22.56763807 -154.17501408 16.1702734 -154.109375 8.23046875 C-154.10437988 7.43874268 -154.09938477 6.6470166 -154.09423828 5.83129883 C-153.85392237 -2.25408867 -151.76976654 -7.88379129 -145.91796875 -13.57421875 C-142.53954376 -16.26591746 -138.95848725 -17.32335381 -134.796875 -18.26953125 C-134.01658936 -18.46119873 -133.23630371 -18.65286621 -132.43237305 -18.8503418 C-130.60352797 -19.29699776 -128.7726893 -19.73553312 -126.94042969 -20.16796875 C-122.96340685 -21.11004862 -118.99347286 -22.07975604 -115.0234375 -23.05078125 C-106.88965354 -25.03726857 -98.75077942 -27.00201576 -90.609375 -28.95703125 C-90.609375 -29.61703125 -90.609375 -30.27703125 -90.609375 -30.95703125 C-94.42037482 -31.77667394 -98.23341375 -32.58642475 -102.046875 -33.39453125 C-103.11615234 -33.62462891 -104.18542969 -33.85472656 -105.28710938 -34.09179688 C-116.91663555 -36.54573359 -128.06618255 -37.19752659 -139.921875 -37.20703125 C-140.67881653 -37.20770599 -141.43575806 -37.20838074 -142.21563721 -37.20907593 C-154.25572803 -37.19205802 -165.81321878 -36.53498236 -177.609375 -33.95703125 Z M-69.51757812 -17.45996094 C-70.20424057 -17.30057541 -70.89090302 -17.14118988 -71.59837341 -16.97697449 C-73.8636882 -16.44939428 -76.12726028 -15.91478701 -78.390625 -15.37890625 C-79.16527603 -15.19634529 -79.93992706 -15.01378433 -80.73805237 -14.82569122 C-84.83520045 -13.86001306 -88.93104744 -12.88902723 -93.02587891 -11.91357422 C-97.2530293 -10.90764235 -101.48409719 -9.91935298 -105.71634674 -8.93513107 C-108.97347076 -8.17437162 -112.22744532 -7.40076694 -115.48069763 -6.62363434 C-117.03925674 -6.25366638 -118.59896517 -5.88850551 -120.1598053 -5.52828217 C-122.34374245 -5.02295461 -124.52260237 -4.49959941 -126.70117188 -3.97167969 C-127.94153198 -3.67855896 -129.18189209 -3.38543823 -130.45983887 -3.08343506 C-133.83767636 -1.87538128 -135.41797163 -0.76740292 -137.609375 2.04296875 C-138.24014107 4.94290316 -138.24014107 4.94290316 -138.109375 8.04296875 C-138.1196875 9.07421875 -138.13 10.10546875 -138.140625 11.16796875 C-137.45396954 14.88398652 -136.67652184 15.83092845 -133.609375 18.04296875 C-130.51303655 18.55608665 -127.47571496 18.41233915 -124.34765625 18.29296875 C-123.44242722 18.27782227 -122.53719818 18.26267578 -121.60453796 18.24707031 C-117.73976117 18.18188236 -113.87669154 18.06989434 -110.01293945 17.9609375 C-107.18709321 17.88806811 -104.36153239 17.84001168 -101.53515625 17.79296875 C-100.67545731 17.75977539 -99.81575836 17.72658203 -98.93000793 17.69238281 C-92.14579974 17.58402906 -86.19257776 19.08491544 -80.86700439 23.48135376 C-75.41274393 28.88756686 -72.9478837 36.70247711 -70.046875 43.66796875 C-69.4913469 44.97182874 -68.9347123 46.27521785 -68.37695312 47.578125 C-66.7543483 51.38627247 -65.1739764 55.21067523 -63.609375 59.04296875 C-63.11663086 60.24445557 -62.62388672 61.44594238 -62.11621094 62.68383789 C-61.43800293 64.38334595 -61.43800293 64.38334595 -60.74609375 66.1171875 C-60.34737061 67.11322998 -59.94864746 68.10927246 -59.5378418 69.13549805 C-57.29764262 76.15062611 -57.63489761 82.25306621 -60.56640625 88.9453125 C-63.5718837 94.66995501 -67.65966207 97.82246451 -72.921875 101.41796875 C-73.73849609 102.00707031 -74.55511719 102.59617187 -75.39648438 103.203125 C-85.24639431 110.18832009 -92.24635094 113.43598555 -104.609375 112.04296875 C-110.8288733 110.37330478 -115.51795297 105.86506505 -120.3125 101.75 C-122.5916167 100.05616667 -123.79172489 99.20225112 -126.609375 99.04296875 C-128.98278392 99.91752225 -128.98278392 99.91752225 -131.421875 101.41796875 C-132.37578125 101.9696875 -133.3296875 102.52140625 -134.3125 103.08984375 C-135.40046875 103.734375 -136.4884375 104.37890625 -137.609375 105.04296875 C-138.93680254 105.79940233 -140.26496128 106.55455384 -141.59375 107.30859375 C-142.95384486 108.0938065 -144.3132263 108.88025635 -145.671875 109.66796875 C-146.65474487 110.22556885 -146.65474487 110.22556885 -147.6574707 110.79443359 C-150.16778364 112.27751608 -152.28940663 113.63695145 -154.10546875 115.94140625 C-155.39461524 121.31784666 -152.92318625 125.91798124 -150.609375 130.66796875 C-147.26090562 137.57418685 -145.10070971 143.72724632 -147.27539062 151.38964844 C-149.66557131 157.70224142 -152.64992581 161.94599085 -157.421875 166.66796875 C-158.76087018 168.04252711 -160.09939769 169.41754118 -161.4375 170.79296875 C-162.12392578 171.4890625 -162.81035156 172.18515625 -163.51757812 172.90234375 C-166.96601775 176.43127916 -170.31304603 180.05401216 -173.671875 183.66796875 C-177.06623434 187.30996973 -180.46450119 190.91668391 -184.04296875 194.37890625 C-186.84063624 196.6665058 -186.84063624 196.6665058 -186.609375 199.04296875 C-187.94270833 199.70963542 -189.27604167 200.37630208 -190.609375 201.04296875 C-191.599375 201.55859375 -192.589375 202.07421875 -193.609375 202.60546875 C-197.76555453 204.59697144 -200.87569624 205.18011716 -205.46875 204.9921875 C-206.41226318 204.95448242 -207.35577637 204.91677734 -208.32788086 204.87792969 C-241.98473396 203.24075974 -241.98473396 203.24075974 -249.87109375 194.55078125 C-252.20089586 191.77042237 -254.4227391 188.9369268 -256.609375 186.04296875 C-257.21394531 185.24375 -257.81851563 184.44453125 -258.44140625 183.62109375 C-259.44173731 182.287319 -260.43519505 180.94832646 -261.41796875 179.6015625 C-262.66445957 177.89965207 -262.66445957 177.89965207 -264.609375 176.04296875 C-270.34470331 176.04296875 -273.29120864 177.91746313 -277.6171875 181.5703125 C-281.85264374 184.70122819 -285.72020716 185.35567333 -290.921875 185.41796875 C-291.99050781 185.44632813 -293.05914062 185.4746875 -294.16015625 185.50390625 C-303.13591979 184.30442709 -310.74541963 177.75708135 -318.046875 172.79296875 C-320.2102823 171.32648743 -322.37617205 169.86382738 -324.54296875 168.40234375 C-325.49228271 167.75749023 -326.44159668 167.11263672 -327.41967773 166.44824219 C-329.31600111 164.9529508 -329.31600111 164.9529508 -330.609375 165.04296875 C-329.3647832 205.55443182 -313.05258506 245.43589944 -286.609375 276.04296875 C-285.92746094 276.83445312 -285.24554688 277.6259375 -284.54296875 278.44140625 C-282.27265991 281.01631825 -279.95512209 283.53660522 -277.609375 286.04296875 C-276.30226563 287.44869141 -276.30226563 287.44869141 -274.96875 288.8828125 C-263.4207054 301.01780732 -249.97388903 310.86147775 -235.38378906 319.03320312 C-233.59975996 320.04844038 -231.85106419 321.1101474 -230.1015625 322.18359375 C-228.99039063 322.8384375 -227.87921875 323.49328125 -226.734375 324.16796875 C-225.76757812 324.74804688 -224.80078125 325.328125 -223.8046875 325.92578125 C-216.61216249 328.44052716 -209.03687862 325.47745185 -202.12109375 323.05859375 C-201.25547318 322.76112244 -200.3898526 322.46365112 -199.4980011 322.15716553 C-197.68372979 321.52993516 -195.87117346 320.89772377 -194.06030273 320.26074219 C-191.29308436 319.29164124 -188.51739214 318.35033604 -185.74023438 317.41015625 C-183.97077391 316.79463431 -182.20187256 316.17750219 -180.43359375 315.55859375 C-179.60752121 315.28130432 -178.78144867 315.00401489 -177.93034363 314.71832275 C-173.19805059 313.02112061 -170.28692207 311.54461455 -167.609375 307.04296875 C-167.69380409 303.83466317 -168.68729352 301.89336519 -170.171875 299.04296875 C-172.79606565 293.10606219 -172.64084347 285.82501982 -170.953125 279.63671875 C-166.85517689 270.45166265 -157.99910271 266.43027437 -149.359375 262.35546875 C-147.39318226 261.41961208 -145.42951665 260.47842251 -143.46875 259.53125 C-142.60733398 259.12430908 -141.74591797 258.71736816 -140.85839844 258.2980957 C-138.65731897 257.06972515 -137.18611572 256.00083383 -135.609375 254.04296875 C-134.79351797 248.74731493 -136.54738723 245.98460914 -139.484375 241.66796875 C-144.87250902 233.36219126 -146.55089931 226.87688278 -144.609375 217.04296875 C-143.31639437 213.63761666 -141.64665186 210.52452757 -139.859375 207.35546875 C-139.42882812 206.55302734 -138.99828125 205.75058594 -138.5546875 204.92382812 C-136.49282316 201.14271462 -134.32912234 197.56006385 -131.78125 194.0859375 C-129.41572779 191.39474409 -129.41572779 191.39474409 -129.609375 189.04296875 C-128.28679028 188.3552247 -126.94950997 187.69585502 -125.609375 187.04296875 C-124.660625 186.50671875 -123.711875 185.97046875 -122.734375 185.41796875 C-111.01745655 180.61229818 -97.95729338 185.44045498 -86.609375 189.04296875 C-86.45380127 188.4696582 -86.29822754 187.89634766 -86.13793945 187.30566406 C-79.65998074 163.599901 -71.31024328 144.43724723 -53.609375 127.04296875 C-52.86042969 126.2953125 -52.11148437 125.54765625 -51.33984375 124.77734375 C-37.75752781 111.97619997 -16.90078463 100.46815994 1.98046875 98.81640625 C4.56049727 98.57824977 6.12751852 98.33429643 8.390625 97.04296875 C10.74163544 93.84889727 12.54586789 90.73023411 14.37109375 87.20703125 C17.9418941 81.61254714 22.44803613 79.69687739 28.765625 78.29296875 C29.82523437 78.050625 30.88484375 77.80828125 31.9765625 77.55859375 C32.77320313 77.3884375 33.56984375 77.21828125 34.390625 77.04296875 C27.6845367 63.31726075 20.72344916 50.20928792 11.390625 38.04296875 C10.78347656 37.22957031 10.17632812 36.41617188 9.55078125 35.578125 C-5.57766727 16.13582186 -24.30290094 0.26670755 -45.609375 -11.95703125 C-46.18913086 -12.29138184 -46.76888672 -12.62573242 -47.36621094 -12.97021484 C-55.47019852 -17.61206976 -60.05431017 -19.67203171 -69.51757812 -17.45996094 Z M29.390625 95.04296875 C31.88568462 97.53802837 33.06391388 97.40245251 36.515625 97.66796875 C37.42570312 97.74273437 38.33578125 97.8175 39.2734375 97.89453125 C39.97210938 97.94351563 40.67078125 97.9925 41.390625 98.04296875 C41.060625 96.39296875 40.730625 94.74296875 40.390625 93.04296875 C36.46166105 93.04296875 33.19169272 94.04596738 29.390625 95.04296875 Z M-14.609375 173.04296875 C-25.19221206 185.90285067 -27.61542508 198.80830138 -26.609375 215.04296875 C-26.05765616 218.65719474 -25.10559281 221.71487971 -23.609375 225.04296875 C-23.21878906 225.93113281 -22.82820313 226.81929688 -22.42578125 227.734375 C-17.29427369 238.18636915 -9.3119735 246.36169862 1.390625 251.04296875 C2.68806641 251.61144531 2.68806641 251.61144531 4.01171875 252.19140625 C16.77710614 257.29756121 28.79882212 256.76933775 41.578125 251.85546875 C55.126744 245.80634643 63.74980675 235.57732821 69.390625 222.04296875 C73.60750627 210.28008942 72.08040105 197.38024669 67.390625 186.04296875 C61.74096419 174.09110272 52.19743008 165.01870054 39.93359375 160.046875 C20.50486419 153.31287089 -0.39506029 157.83485661 -14.609375 173.04296875 Z M-117.609375 202.04296875 C-119.22879062 204.04082512 -119.22879062 204.04082512 -120.46875 206.3515625 C-121.18224609 207.59583008 -121.18224609 207.59583008 -121.91015625 208.86523438 C-122.62751953 210.15977539 -122.62751953 210.15977539 -123.359375 211.48046875 C-123.85308594 212.33962891 -124.34679687 213.19878906 -124.85546875 214.08398438 C-127.89474019 219.30255303 -127.89474019 219.30255303 -129.609375 225.04296875 C-129.05257188 226.95681918 -129.05257188 226.95681918 -127.984375 228.79296875 C-127.61441406 229.48261719 -127.24445313 230.17226563 -126.86328125 230.8828125 C-125.20777478 233.73482209 -123.46728604 236.52299927 -121.66015625 239.28125 C-118.11669337 245.22214873 -118.61424385 254.00539844 -120.22265625 260.53125 C-124.60155995 270.46576721 -136.02492522 274.33559757 -145.27148438 278.4296875 C-146.17318359 278.84089844 -147.07488281 279.25210938 -148.00390625 279.67578125 C-148.81706299 280.03559082 -149.63021973 280.39540039 -150.46801758 280.76611328 C-152.93564283 282.23751678 -154.16048036 283.57047836 -155.609375 286.04296875 C-155.45618347 290.02594848 -154.56114025 293.28083404 -153.046875 296.91796875 C-150.48251336 303.46151224 -150.88196552 309.77121195 -153.640625 316.1953125 C-158.96117288 326.34297034 -169.46192584 328.86391834 -179.609375 332.29296875 C-180.67027344 332.65648437 -181.73117188 333.02 -182.82421875 333.39453125 C-185.41760684 334.2823578 -188.0126257 335.16503235 -190.609375 336.04296875 C-190.279375 336.70296875 -189.949375 337.36296875 -189.609375 338.04296875 C-187.24419857 338.78130397 -187.24419857 338.78130397 -184.359375 339.296875 C-183.27527344 339.51150391 -182.19117188 339.72613281 -181.07421875 339.94726562 C-179.93082031 340.16447266 -178.78742188 340.38167969 -177.609375 340.60546875 C-175.94068359 340.93708008 -175.94068359 340.93708008 -174.23828125 341.27539062 C-130.32095788 349.83642363 -79.36269042 341.99642022 -41.609375 317.04296875 C-41.279375 316.38296875 -40.949375 315.72296875 -40.609375 315.04296875 C-41.47706497 313.17414273 -41.47706497 313.17414273 -42.86328125 311.1328125 C-43.64010254 309.91440674 -43.64010254 309.91440674 -44.43261719 308.67138672 C-45.00657227 307.78338379 -45.58052734 306.89538086 -46.171875 305.98046875 C-65.45442054 275.46480573 -84.61861945 242.71843288 -87.609375 206.04296875 C-91.66226363 204.78043254 -95.72756618 203.56393016 -99.796875 202.35546875 C-100.94736328 201.99646484 -102.09785156 201.63746094 -103.28320312 201.26757812 C-104.39501953 200.94208984 -105.50683594 200.61660156 -106.65234375 200.28125 C-108.18411255 199.81779175 -108.18411255 199.81779175 -109.74682617 199.3449707 C-113.43775887 198.95557337 -114.74255122 199.74756756 -117.609375 202.04296875 Z " fill="#000000" transform="translate(363.609375,84.95703125)"/>
<path d="M0 0 C2.88381579 2.58803981 3.8491179 4.19529549 4.5625 8 C3.53984818 13.45414303 -1.64272383 16.61001016 -5.75683594 20.04467773 C-30.30848851 40.54221289 -47.52819101 64.93131156 -58.67578125 94.98828125 C-59.87988814 97.72682525 -60.6442275 99.22401607 -63 101 C-66.83394777 102.19278375 -68.54482368 102.18035288 -72.3125 100.6875 C-75 99 -75 99 -76 97 C-76.40346033 90.94158759 -75.5567317 86.70367043 -73.125 81.1875 C-72.81546387 80.4646582 -72.50592773 79.74181641 -72.18701172 78.99707031 C-63.06269685 58.16314373 -28.34664468 -6.84229354 0 0 Z " fill="#000000" transform="translate(127,90)"/>
<path d="M0 0 C2.35509706 2.92032035 2.49861417 5.23212195 2.5625 8.9375 C1.23811881 13.21627001 -1.42589462 14.72844466 -5.1875 16.8125 C-9.6647198 18.88141935 -12.61695693 19.57648464 -17.4375 17.9375 C-19.875 16.3125 -19.875 16.3125 -21.4375 13.9375 C-22 10.5 -22 10.5 -21.4375 6.9375 C-16.18382672 0.13862869 -8.29319196 -3.61498111 0 0 Z " fill="#000000" transform="translate(159.4375,73.0625)"/>
</svg>
