<?xml version="1.0" encoding="UTF-8"?>
<svg version="1.1" xmlns="http://www.w3.org/2000/svg" width="512" height="512">
<path d="M0 0 C0.9932856 -0.0098568 0.9932856 -0.0098568 2.00663757 -0.01991272 C4.19680909 -0.03961247 6.38691208 -0.05130182 8.57714844 -0.0612793 C9.70178623 -0.06739259 9.70178623 -0.06739259 10.84914398 -0.07362938 C14.8188601 -0.09447758 18.78854179 -0.10878376 22.75830078 -0.11816406 C26.8483106 -0.12921622 30.93777453 -0.16360529 35.02759171 -0.20333576 C38.18128434 -0.22954586 41.33484787 -0.23785983 44.48863983 -0.24144554 C45.9956607 -0.24630146 47.50267619 -0.2578871 49.00959015 -0.27648354 C64.11782304 -0.45131726 64.11782304 -0.45131726 69.43652344 4.17700195 C73.79118065 9.99645101 75.15145988 16.70388392 76.88964844 23.6730957 C77.19473328 24.8617775 77.49981812 26.05045929 77.81414795 27.27516174 C78.78129056 31.05254828 79.73408847 34.83338325 80.68652344 38.61450195 C81.34182837 41.18440458 81.99806817 43.75406902 82.65527344 46.32348633 C84.2598605 52.60527342 85.8527024 58.88994898 87.43652344 65.17700195 C88.32847412 65.31799316 89.2204248 65.45898438 90.1394043 65.60424805 C93.48888521 66.1350698 96.83794727 66.66840178 100.18676758 67.20336914 C101.62866784 67.43319765 103.07072225 67.66206144 104.51293945 67.88989258 C127.93434725 71.59185513 127.93434725 71.59185513 133.43652344 76.17700195 C137.33603621 81.59713812 137.33595033 86.70969429 136.43652344 93.17700195 C134.74927394 97.45886623 132.25584642 99.61916503 128.49902344 102.17700195 C119.09459005 105.49501633 106.05333586 101.68236925 96.43652344 100.17700195 C97.80023096 109.12513356 99.6565076 117.90797326 101.71777344 126.71826172 C102.04698505 128.13785544 102.37586826 129.55752534 102.70445251 130.9772644 C103.59214924 134.80860907 104.48440287 138.63887918 105.37751389 142.46896482 C106.32443575 146.53344888 107.2670716 150.59892691 108.21020508 154.66429138 C110.00499296 162.3977916 111.80357275 170.13040469 113.60353374 177.86270231 C115.61241918 186.49331018 117.61712081 195.12488786 119.62142563 203.75656044 C124.22108731 223.56462545 128.82845091 243.37089111 133.43652344 263.17700195 C136.73652344 277.36700195 140.03652344 291.55700195 143.43652344 306.17700195 C229.56652344 306.17700195 315.69652344 306.17700195 404.43652344 306.17700195 C405.75601144 303.53802595 405.61073379 301.50011526 405.67066956 298.54371643 C405.69728668 297.34522568 405.72390381 296.14673492 405.75132751 294.91192627 C405.77612148 293.57653975 405.80082231 292.24115151 405.82543945 290.90576172 C405.85473503 289.50460465 405.88444885 288.10345627 405.91455078 286.70231628 C405.99527641 282.88784769 406.0700372 279.07328258 406.14370465 275.258672 C406.22182122 271.26254454 406.30517875 267.26652636 406.38792419 263.27049255 C406.52635293 256.54936741 406.66124128 249.82817891 406.79370117 243.10693359 C406.96322819 234.50541045 407.13811144 225.90400552 407.31488132 217.30262852 C407.46723867 209.88905452 407.61754301 202.47543912 407.76729846 195.06181216 C407.79935728 193.47596062 407.83148026 191.89011038 407.86366773 190.30426145 C407.95564691 185.77166916 408.04651536 181.23905744 408.13561249 176.70640755 C408.17544526 174.69153573 408.2163253 172.6766847 408.25724792 170.66183472 C408.30382845 168.26624938 408.34503819 165.87055084 408.37973213 163.47476387 C408.41722272 161.29775731 408.47615541 159.12100135 408.55781364 156.94520378 C408.58501551 155.96083399 408.61221737 154.9764642 408.64024353 153.96226501 C408.67270644 153.10639266 408.70516935 152.25052031 408.73861599 151.36871243 C408.610262 149.1150776 408.610262 149.1150776 407.13472843 147.45995426 C405.28556696 145.94176262 405.28556696 145.94176262 402.06152344 144.86450195 C397.67067289 142.82048532 396.20299766 141.08261262 393.43652344 137.17700195 C392.07969895 133.10652848 391.9118009 129.43308478 392.43652344 125.17700195 C395.13831807 119.87347915 398.73149239 116.07867897 404.43652344 114.17700195 C412.53529335 113.4538975 419.55572886 115.37114337 426.18652344 120.1652832 C433.45392713 126.42693013 438.39784648 132.6992952 440.43652344 142.17700195 C440.62391331 145.02532809 440.71671428 147.76873916 440.70214844 150.61450195 C440.70483231 151.47888885 440.70751617 152.34327576 440.71028137 153.2338562 C440.71432799 156.21503903 440.70120674 159.19585534 440.68652344 162.17700195 C440.68441864 163.22938049 440.68231384 164.28175903 440.68014526 165.36602783 C440.62063001 191.75851422 440.06829362 218.14868151 439.56590271 244.5355835 C439.5213414 246.87855469 439.4770804 249.22153161 439.43312073 251.56451416 C439.30580962 258.34942278 439.17420272 265.13422239 439.03601646 271.91891861 C438.99372421 274.01442345 438.95254468 276.1099511 438.91257668 278.20550156 C438.135811 318.60013186 438.135811 318.60013186 425.72949219 330.86450195 C412.95256077 341.62402315 395.94325403 339.67951227 380.35351562 339.51660156 C377.70925169 339.50403914 375.06503562 339.49316321 372.42076111 339.48464966 C366.74491441 339.46372748 361.06927559 339.42962176 355.39354706 339.3877697 C346.40694218 339.32278202 337.42046233 339.3009972 328.43365479 339.286026 C325.35038339 339.28037973 322.26711251 339.27448196 319.18384171 339.26852512 C318.02834061 339.26631424 318.02834061 339.26631424 316.84949605 339.26405869 C308.10162822 339.24680327 299.35379162 339.22139569 290.60595703 339.19189453 C289.80731123 339.1892131 289.00866542 339.18653168 288.18581823 339.183769 C275.24870667 339.13917297 262.31197274 339.06030604 249.37509379 338.97236305 C236.05509371 338.88302127 222.73554311 338.84396055 209.41524434 338.84749991 C201.21945591 338.84784991 193.02591029 338.80790014 184.8306435 338.71459729 C179.20692531 338.65405953 173.58434833 338.64163012 167.96036187 338.66570663 C164.72422591 338.67808829 161.49251853 338.66290234 158.25679588 338.60378838 C143.2137444 338.34311143 133.18425966 339.38713323 121.87927628 349.87954044 C121.30746895 350.43533696 120.73566163 350.99113348 120.14652681 351.56377232 C117.49334516 354.0668032 114.60968108 356.1850515 111.68652344 358.36450195 C110.66171875 359.15469727 109.63691406 359.94489258 108.58105469 360.7590332 C106.35405489 362.47147156 104.12292891 364.17722226 101.88574219 365.8762207 C101.29825195 366.32392822 100.71076172 366.77163574 100.10546875 367.23291016 C98.47639755 368.47400882 96.84520258 369.7123184 95.21386719 370.95043945 C92.77561853 372.90515356 90.58871687 374.91642468 88.43652344 377.17700195 C88.93152344 378.66200195 88.93152344 378.66200195 89.43652344 380.17700195 C92.0746819 381.49608119 94.03541421 381.30309092 96.9913826 381.3044939 C98.17950239 381.30750155 99.36762219 381.3105092 100.59174562 381.31360799 C101.90864058 381.31185762 103.22553555 381.31010725 104.58233643 381.30830383 C105.9863439 381.3100049 107.39035089 381.31215408 108.79435706 381.31471509 C111.85597715 381.31932278 114.917577 381.32073088 117.97920036 381.31974983 C122.95996271 381.31816081 127.94070487 381.32335109 132.92146301 381.32937622 C140.15310917 381.33749852 147.38475179 381.34243626 154.61640167 381.34566689 C166.04390452 381.35115701 177.47137741 381.36804795 188.89886475 381.38700867 C192.80620188 381.3933658 196.7135391 381.39967418 200.62087631 381.40598583 C202.0857186 381.40836148 202.0857186 381.40836148 203.58015366 381.41078511 C214.70301044 381.42873113 225.82586935 381.44495285 236.94873047 381.45996094 C237.96582524 381.46133681 238.98292001 381.46271268 240.03083584 381.46413025 C256.51306305 381.48606017 272.99528259 381.49681611 289.47752181 381.50433169 C306.38941422 381.51239879 323.30124067 381.53567659 340.21309543 381.57228535 C350.64986042 381.59433005 361.08648985 381.60396899 371.52327695 381.59778502 C378.67504866 381.59461379 385.82670451 381.60591832 392.97844037 381.62867943 C397.10677345 381.64136485 401.23484847 381.64749596 405.3631916 381.63626289 C409.14217631 381.62611242 412.92065949 381.6343058 416.69958481 381.65712585 C418.71516115 381.66450171 420.73077979 381.65217541 422.74632764 381.6391657 C433.65783515 381.73776923 433.65783515 381.73776923 438.43652344 386.17700195 C442.39964846 390.55729803 443.01383421 394.07320279 442.75683594 399.77856445 C442.12277676 404.52627582 440.40905578 407.27740953 436.93652344 410.48950195 C433.65642712 412.70356697 431.20054672 413.30242972 427.33227539 413.29052734 C426.10133904 413.29041405 426.10133904 413.29041405 424.84553528 413.29029846 C423.96419418 413.28513718 423.08285309 413.27997589 422.17480469 413.2746582 C421.26901169 413.27324326 420.36321869 413.27182831 419.42997742 413.27037048 C416.53629253 413.26477197 413.64268495 413.25221976 410.74902344 413.23950195 C408.78743601 413.23448676 406.82584738 413.22992389 404.86425781 413.22583008 C400.05498322 413.21480302 395.24576644 413.19753942 390.43652344 413.17700195 C390.75959473 413.90967285 391.08266602 414.64234375 391.41552734 415.3972168 C394.76191657 424.50816556 393.59186092 438.14276772 389.69433594 446.86450195 C382.57000675 459.96264754 373.11877065 469.4295361 358.50976562 473.74633789 C346.20254244 476.30285481 332.24975932 474.89836909 321.51464844 468.41137695 C310.3096716 460.71931177 302.63731788 450.97352868 299.71386719 437.4699707 C298.67745591 428.90133099 299.34051358 421.56104137 301.43652344 413.17700195 C261.34152344 413.67200195 261.34152344 413.67200195 220.43652344 414.17700195 C221.09652344 417.14700195 221.75652344 420.11700195 222.43652344 423.17700195 C223.80957466 435.2491536 219.8701089 447.56998231 212.87402344 457.36450195 C206.00492402 465.76006791 196.07050344 471.86148003 185.43652344 474.17700195 C170.77492057 475.40373733 158.56715227 473.97106123 146.43652344 465.17700195 C145.54513672 464.55051758 145.54513672 464.55051758 144.63574219 463.91137695 C135.71873821 457.0308506 131.25060048 446.9280584 128.74902344 436.23950195 C128.12539954 430.12798773 128.08102956 424.50511617 129.45092773 418.49853516 C129.7262458 417.28421562 129.7262458 417.28421562 130.00712585 416.04536438 C130.14882706 415.42880478 130.29052826 414.81224518 130.43652344 414.17700195 C129.88465866 414.17335632 129.33279388 414.16971069 128.76420593 414.16595459 C122.97154021 414.12383937 117.17964559 414.05429529 111.38745117 413.96948242 C109.23160551 413.94141949 107.07565976 413.92013267 104.91967773 413.90600586 C101.80368343 413.88437202 98.6888741 413.83761838 95.57324219 413.78637695 C94.62382248 413.78514832 93.67440277 413.78391968 92.69621277 413.78265381 C82.34839779 413.56089591 73.83483779 410.53081692 66.37402344 403.30981445 C58.77377562 394.94341262 55.80928377 385.37479102 56.15527344 374.13012695 C57.26973869 362.42824184 62.84533952 354.98608731 71.56542969 347.5012207 C77.3828835 342.79185333 83.35656745 338.2868292 89.328125 333.77563477 C92.42182709 331.42992364 95.4909634 329.0528631 98.56152344 326.67700195 C102.79335772 323.41684355 107.05555286 320.23349305 111.43652344 317.17700195 C110.76077882 310.63289468 109.42308031 304.38195845 107.88989258 297.98901367 C107.49799193 296.33239637 107.49799193 296.33239637 107.0981741 294.64231205 C106.22667401 290.96281011 105.34916161 287.28476904 104.47167969 283.60668945 C103.84797372 280.98063751 103.22557646 278.35427586 102.60314941 275.72792053 C101.26993662 270.10523793 99.93374464 264.48327041 98.5954895 258.86178589 C96.48802936 250.0089647 94.38651128 241.15473869 92.28588867 232.30029297 C91.57409559 229.30029762 90.86225027 226.30031468 90.15037537 223.30033875 C89.97345164 222.55474129 89.79652791 221.80914383 89.61424285 221.0409525 C88.35190364 215.72157515 87.08870408 210.40240253 85.8250885 205.08332825 C79.41486811 178.0994434 73.02978207 151.10967011 66.65353394 124.11773682 C64.78504444 116.20821326 62.91531572 108.29898279 61.0454607 100.38978195 C59.82949462 95.24601116 58.6140615 90.10211579 57.40003967 84.95788574 C56.94492029 83.02945857 56.48979647 81.10103244 56.03466797 79.17260742 C55.81561137 78.24439304 55.59655478 77.31617867 55.3708601 76.35983658 C54.1017369 70.98502516 52.82743576 65.61147746 51.54804707 60.23910046 C50.7789446 57.00818881 50.01223942 53.77671108 49.245924 50.54513741 C48.89588932 49.07197165 48.54467099 47.59908654 48.1921711 46.12650871 C47.71846866 44.1473893 47.2491174 42.16722989 46.7800293 40.18701172 C46.51846542 39.08978287 46.25690155 37.99255402 45.9874115 36.86207581 C45.43652344 34.17700195 45.43652344 34.17700195 45.43652344 31.17700195 C44.46052689 31.19032562 44.46052689 31.19032562 43.46481323 31.20391846 C36.68398841 31.29251029 29.9033284 31.35278568 23.12207031 31.39672852 C20.59237997 31.416826 18.06273598 31.44410863 15.53320312 31.47875977 C11.89408927 31.52735752 8.25559044 31.54999007 4.61621094 31.56762695 C3.48786835 31.58827209 2.35952576 31.60891724 1.19699097 31.63018799 C-5.0569991 31.63196943 -8.83380728 31.41619418 -13.56347656 27.17700195 C-17.52660158 22.79670588 -18.14078734 19.28080112 -17.88378906 13.57543945 C-17.24972989 8.82772809 -15.53600891 6.07659437 -12.06347656 2.86450195 C-7.98136963 0.10907978 -4.82226818 0.03962547 0 0 Z M164.99511719 417.64575195 C161.35308001 421.87923106 160.07357886 424.44632608 160.15527344 430.08325195 C160.75604662 434.55567455 163.63932732 437.33425177 166.62402344 440.48950195 C170.50165666 442.81608188 173.93857998 443.36806504 178.43652344 443.17700195 C183.7214715 441.44923047 186.21314771 438.50553507 189.43652344 434.17700195 C191.04472083 430.96060717 190.90513575 427.66556028 190.43652344 424.17700195 C188.19015977 419.85067193 185.62707283 416.69133159 181.43652344 414.17700195 C175.07214724 412.4562632 169.85377405 412.69492545 164.99511719 417.64575195 Z M332.93652344 419.80200195 C330.89510714 424.39518862 330.66289562 428.22900735 331.43652344 433.17700195 C333.58393786 438.0086844 336.48390721 440.45147677 341.22558594 442.5402832 C345.18617333 443.68087639 348.54411794 443.502373 352.43652344 442.17700195 C356.06374143 439.98412111 358.63639537 437.41053272 360.93652344 433.86450195 C361.84330338 428.99055978 361.79840026 424.45685271 359.20214844 420.1105957 C355.54878209 415.60038312 352.42927424 413.57603539 346.62402344 412.80200195 C340.93788288 413.47095967 336.87273976 415.66897481 332.93652344 419.80200195 Z " fill="#000000" transform="translate(43.5634765625,37.822998046875)"/>
<path d="M0 0 C20.37354842 15.88128703 34.66583535 36.15549328 41.6184082 61.09521484 C41.9380957 62.18189453 42.2577832 63.26857422 42.5871582 64.38818359 C49.9214236 93.89501985 43.34722822 124.52133616 28.1105957 150.22802734 C24.26237847 156.40550978 19.5443115 161.76373568 14.6184082 167.09521484 C13.96356445 167.83126953 13.3087207 168.56732422 12.6340332 169.32568359 C-0.57352161 183.46454035 -18.95034168 192.95161016 -37.3815918 198.09521484 C-38.45666992 198.41490234 -39.53174805 198.73458984 -40.6394043 199.06396484 C-58.00388736 203.41515782 -79.21745159 203.1991798 -96.3815918 198.09521484 C-97.60104492 197.75490234 -98.82049805 197.41458984 -100.0769043 197.06396484 C-128.59895872 188.39607151 -152.16832701 168.14319806 -166.3815918 142.09521484 C-180.51542882 114.47324908 -182.20121448 83.04929931 -173.1940918 53.53271484 C-163.08556398 24.81117922 -141.43901803 1.52836087 -114.1315918 -11.65478516 C-77.82773839 -28.47324802 -32.0058106 -24.13270043 0 0 Z M-127.5690918 37.34521484 C-142.22521906 54.6442503 -148.45339938 75.37827869 -147.1706543 97.77880859 C-144.54702489 119.58463414 -134.14628217 139.03602951 -117.0612793 152.84912109 C-99.4303543 166.40563086 -77.63821843 172.4467276 -55.5300293 169.59912109 C-32.86789765 165.44674293 -13.57612167 153.97770669 -0.2175293 135.02490234 C12.71617398 114.9219553 16.14132797 93.35286806 11.12329102 70.17431641 C6.26379381 50.1629633 -7.5158185 32.14322048 -24.99902344 21.44702148 C-59.19297913 1.61594101 -100.67445945 8.66111576 -127.5690918 37.34521484 Z " fill="#000000" transform="translate(373.381591796875,20.90478515625)"/>
<path d="M0 0 C4.22361146 2.81574097 7.07255826 5.30671386 8.484375 10.20703125 C9.28813455 15.43950594 8.91725054 19.35158356 6.2421875 23.9453125 C4.06304006 26.88656615 1.53709568 29.36664191 -1.1171875 31.87890625 C-3.08328312 33.7745192 -4.85542647 35.73427992 -6.625 37.8125 C-9.19415271 40.80301716 -11.88067256 43.60616684 -14.6875 46.375 C-17.47371141 49.1235599 -20.14058392 51.90359791 -22.6875 54.875 C-25.93914628 58.66858733 -29.44463094 62.14892647 -33 65.65625 C-34.98470342 67.66930632 -36.84846916 69.72946403 -38.6875 71.875 C-41.31429016 74.91718953 -44.01659112 77.8618169 -46.8125 80.75 C-47.52664063 81.48992187 -48.24078125 82.22984375 -48.9765625 82.9921875 C-52.73807125 86.19545113 -56.23996359 87.16434817 -61.125 87.1875 C-61.93839844 87.20425781 -62.75179687 87.22101563 -63.58984375 87.23828125 C-69.25349684 86.4462215 -72.85559143 83.60278848 -76.5 79.375 C-77.65628906 78.04082031 -77.65628906 78.04082031 -78.8359375 76.6796875 C-81.86802053 73.06334927 -84.8745331 69.42914949 -87.83984375 65.7578125 C-89.52213966 63.69203149 -91.217694 61.64769771 -92.94140625 59.6171875 C-93.399104 59.07626465 -93.85680176 58.5353418 -94.32836914 57.97802734 C-95.62241348 56.45176632 -96.9204771 54.92891574 -98.21875 53.40625 C-101.91036352 48.65988976 -101.79405936 43.65929067 -101.1875 37.875 C-99.83525483 33.31009591 -97.50639866 30.73985226 -93.375 28.4375 C-88.91056429 26.53124372 -85.0222371 25.85301243 -80.31982422 27.54833984 C-74.85346073 30.10313689 -71.53548891 33.31000098 -67.8125 38 C-66.78417737 39.25286951 -65.75554504 40.50548491 -64.7265625 41.7578125 C-64.28521973 42.30840332 -63.84387695 42.85899414 -63.38916016 43.42626953 C-62.10836841 45.0160102 -62.10836841 45.0160102 -60.1875 46.875 C-50.73877453 37.58870778 -50.73877453 37.58870778 -41.859375 27.765625 C-39.1772864 24.73260892 -36.26016751 21.93991566 -33.37890625 19.09765625 C-31.3727981 17.0629405 -29.48636484 14.97914563 -27.625 12.8125 C-25.17161394 9.97203679 -22.66769906 7.20258967 -20.0625 4.5 C-19.44117188 3.85289063 -18.81984375 3.20578125 -18.1796875 2.5390625 C-12.80753546 -1.94826449 -6.39842274 -2.25826685 0 0 Z " fill="#000000" transform="translate(352.1875,68.125)"/>
</svg>
